<?xml version="1.0" standalone="no"?>
<!DOCTYPE svg PUBLIC "-//W3C//DTD SVG 20010904//EN"
 "http://www.w3.org/TR/2001/REC-SVG-20010904/DTD/svg10.dtd">
<svg version="1.0" xmlns="http://www.w3.org/2000/svg"
 width="96.000000pt" height="96.000000pt" viewBox="0 0 96.000000 96.000000"
 preserveAspectRatio="xMidYMid meet">

<g transform="translate(0.000000,96.000000) scale(0.100000,-0.100000)"
fill="#1266a9" stroke="none">
<path d="M533 873 c-23 -56 -13 -134 23 -186 81 -115 252 -141 335 -50 l24 26
-32 -17 c-47 -24 -128 -20 -189 8 -89 41 -154 145 -142 226 6 40 0 38 -19 -7z"/>
<path d="M322 818 c-94 -153 -15 -364 172 -461 56 -29 69 -31 156 -31 111 -1
169 20 233 82 63 61 63 74 1 37 -168 -102 -404 -24 -510 168 -26 47 -29 61
-29 144 0 51 -1 93 -2 93 -1 0 -10 -15 -21 -32z"/>
<path d="M82 749 c-12 -15 -35 -54 -49 -86 -38 -81 -38 -198 0 -296 130 -335
551 -455 799 -227 29 26 62 63 72 81 l19 33 -39 -32 c-178 -143 -470 -108
-653 78 -124 126 -179 318 -129 449 12 33 7 33 -20 0z"/>
</g>
</svg>
